<?xml version="1.0" standalone="no"?>
<!DOCTYPE svg PUBLIC "-//W3C//DTD SVG 20010904//EN"
 "http://www.w3.org/TR/2001/REC-SVG-20010904/DTD/svg10.dtd">
<svg version="1.0" xmlns="http://www.w3.org/2000/svg"
 width="1080.000000pt" height="1080.000000pt" viewBox="0 0 1080.000000 1080.000000"
 preserveAspectRatio="xMidYMid meet">
<metadata>
Created by potrace 1.14, written by Peter Selinger 2001-2017
</metadata>
<g transform="translate(0.000000,1080.000000) scale(0.100000,-0.100000)"
fill="#000000" stroke="none">
<path d="M0 5400 l0 -5400 5400 0 5400 0 0 5400 0 5400 -5400 0 -5400 0 0
-5400z m5295 4730 c88 -54 85 -199 -5 -245 l-30 -16 0 -492 0 -493 36 -35 c20
-18 63 -64 95 -102 l59 -68 0 -549 0 -550 50 0 50 0 0 402 0 403 112 112 113
113 -173 173 -172 172 0 237 0 236 -34 20 c-102 60 -99 196 5 250 72 38 147
18 189 -51 40 -65 15 -166 -48 -197 l-32 -15 0 -100 0 -100 118 118 117 117
72 0 c71 0 73 1 88 30 45 87 185 94 243 13 45 -64 36 -140 -23 -192 -66 -58
-149 -50 -208 20 -32 37 -37 39 -93 39 l-59 0 -127 -127 -128 -128 0 -70 0
-70 159 -159 c190 -189 191 -190 191 -40 0 74 -3 94 -14 94 -19 0 -74 64 -82
96 -23 92 45 177 142 177 126 0 191 -149 103 -239 -18 -19 -39 -34 -46 -34
-10 0 -13 -26 -13 -107 l0 -107 -160 -161 -160 -161 0 -382 0 -382 45 0 45 0
0 373 0 372 135 135 135 135 98 4 c96 3 97 3 117 35 83 129 290 45 261 -107
-16 -87 -124 -144 -199 -106 -32 17 -77 61 -77 76 0 10 -21 13 -82 13 l-83 0
-112 -112 -113 -113 0 -352 0 -353 219 0 c235 0 246 -2 239 -52 l-3 -23 -850
0 -850 0 -3 23 c-7 50 4 52 239 52 l219 0 0 352 0 353 -112 112 -113 113 -80
0 c-78 0 -80 -1 -97 -30 -52 -91 -185 -91 -246 0 -45 66 -17 163 59 203 63 34
152 9 187 -53 16 -28 19 -28 114 -32 l98 -3 135 -135 135 -135 0 -372 0 -373
40 0 40 0 0 388 0 387 -155 155 -155 155 0 102 0 102 -31 18 c-124 73 -74 264
70 266 148 2 207 -189 80 -261 -29 -17 -29 -18 -29 -107 l0 -90 155 -155 155
-155 0 -402 0 -403 50 0 50 0 0 542 0 542 -95 97 -95 96 0 164 0 164 -122 122
-123 123 -57 0 c-47 0 -58 -3 -63 -19 -9 -31 -71 -79 -109 -86 -47 -9 -119 24
-146 67 -42 69 -17 168 51 204 50 25 131 15 169 -21 16 -16 32 -37 36 -47 4
-15 17 -18 81 -18 l76 0 103 -102 104 -102 0 280 0 280 -31 23 c-88 65 -91
165 -9 235 40 33 116 36 165 6z m-1568 -2901 c38 -14 83 -57 99 -96 11 -26 14
-115 14 -430 0 -600 -14 -560 350 -920 190 -188 261 -252 279 -253 31 0 61 27
61 54 0 13 -75 96 -215 235 -137 139 -220 229 -230 253 -60 147 53 307 218
308 98 0 79 15 507 -389 216 -204 268 -262 320 -362 76 -146 82 -189 88 -566
l4 -333 -522 0 -523 0 6 98 c10 159 18 144 -233 463 -123 156 -256 325 -295
374 -71 92 -117 179 -141 269 -11 40 -14 174 -14 616 l0 565 23 40 c38 68 131
102 204 74z m3343 -9 c22 -11 51 -37 65 -57 l25 -38 0 -583 c0 -564 -1 -585
-21 -645 -33 -98 -74 -166 -176 -293 -53 -65 -183 -228 -290 -362 l-193 -243
0 -135 0 -134 -515 0 -515 0 0 328 c0 296 2 337 20 407 24 93 55 164 106 241
35 53 542 547 643 627 62 49 117 63 187 48 111 -25 184 -114 184 -224 0 -98
-19 -125 -246 -344 -112 -108 -206 -205 -210 -215 -9 -29 22 -68 54 -68 22 0
76 49 284 253 239 235 258 257 291 327 20 41 40 102 46 134 7 36 11 218 11
461 0 400 0 402 23 445 42 81 145 112 227 70z m-1852 -2681 c2 -52 -2 -88 -12
-113 l-15 -36 -490 0 c-457 0 -491 1 -499 18 -18 33 -24 85 -17 148 l7 64 511
-2 512 -3 3 -76z m1260 -6 c2 -60 -1 -91 -13 -113 l-16 -30 -492 2 -492 3 -13
40 c-9 27 -11 63 -6 113 l6 72 512 -2 511 -3 3 -82z"/>
</g>
</svg>
